<?xml version="1.0" encoding="iso-8859-1"?>
<!-- Generator: Adobe Illustrator 19.1.0, SVG Export Plug-In . SVG Version: 6.00 Build 0)  -->
<svg version="1.1" id="Capa_1" xmlns="http://www.w3.org/2000/svg" xmlns:xlink="http://www.w3.org/1999/xlink" x="0px" y="0px"
	 viewBox="0 0 67.322 67.322" style="enable-background:new 0 0 67.322 67.322;" xml:space="preserve">
<g>
	<path d="M24.246,19.125c-0.688-2.142-2.993-3.317-5.134-2.637c-2.143,0.689-3.325,2.992-2.637,5.134
		c0.557,1.729,2.163,2.833,3.888,2.833c0.413,0,0.832-0.063,1.245-0.196c1.038-0.333,1.884-1.051,2.382-2.021
		S24.579,20.163,24.246,19.125z M21.767,21.095c-0.193,0.376-0.521,0.653-0.923,0.782c-0.833,0.269-1.722-0.192-1.987-1.021
		c-0.13-0.401-0.095-0.829,0.099-1.205c0.192-0.375,0.521-0.653,0.922-0.782c0.16-0.052,0.322-0.076,0.482-0.076
		c0.668,0,1.291,0.428,1.506,1.097C21.994,20.292,21.959,20.72,21.767,21.095z"/>
	<path d="M59.394,53.944c-0.329-1.022-1.036-1.856-1.992-2.347c-0.953-0.49-2.042-0.579-3.067-0.252
		c-1.022,0.328-1.856,1.036-2.348,1.991c-0.49,0.956-0.58,2.045-0.252,3.067l0.001,0.001c0.548,1.704,2.132,2.792,3.831,2.792
		c0.407,0,0.82-0.062,1.228-0.193c1.022-0.328,1.856-1.036,2.348-1.991C59.632,56.056,59.722,54.967,59.394,53.944z M56.029,56.623
		c-0.803,0.257-1.658-0.186-1.915-0.983c-0.123-0.387-0.09-0.799,0.096-1.16c0.187-0.361,0.501-0.629,0.889-0.753
		c0.797-0.256,1.657,0.184,1.914,0.982S56.828,56.367,56.029,56.623z"/>
	<path d="M64.353,44.92c-1.114,0-2.038,0.801-2.547,2.032l-6.683,0.344c-0.928,0-1.816,0.17-2.644,0.466l-8.2-10.518l1.162-0.373
		c2.23-0.718,3.532-2.897,2.902-4.86c-0.128-0.396-0.339-0.742-0.59-1.055l9.284-2.983c2.23-0.718,3.463-3.116,2.746-5.348
		L54.07,4.845c-0.347-1.077-1.095-1.957-2.106-2.477s-2.164-0.615-3.241-0.27L12.767,13.651c-2.229,0.718-3.461,3.115-2.746,5.348
		l0.424,1.318l-6.751-1.826c-1.214-0.327-2.311-0.1-3.006,0.63c-0.695,0.729-0.873,1.834-0.488,3.033l5.713,17.782
		c0.386,1.198,1.174,1.993,2.164,2.18c0.146,0.028,0.294,0.042,0.442,0.042c0.846,0,1.689-0.451,2.367-1.281l4.425-5.417
		l0.424,1.319c0.346,1.078,1.094,1.958,2.105,2.478c0.612,0.314,1.275,0.474,1.942,0.474c0.436,0,0.873-0.067,1.299-0.204
		l13.557-4.356c-0.022,0.4,0.007,0.805,0.134,1.201c0.494,1.535,2.025,2.489,3.737,2.489c0.477,0,0.968-0.073,1.454-0.229
		l1.781-0.572l8.519,10.927c-1.835,1.444-3.019,3.678-3.019,6.188c0,4.343,3.532,7.877,7.811,7.876c0.001,0,0.003,0,0.004,0
		l6.747,0.346c0.508,1.231,1.433,2.031,2.546,2.031c1.693,0,2.97-1.827,2.97-4.25V49.17C67.322,46.748,66.046,44.92,64.353,44.92z
		 M8.95,39.294c-0.226,0.276-0.397,0.356-0.381,0.374c-0.037-0.021-0.168-0.158-0.276-0.498L2.58,21.388
		c-0.108-0.335-0.084-0.522-0.106-0.522H2.473c0.038-0.021,0.224-0.055,0.568,0.039l8.315,2.249l3.043,9.47L8.95,39.294z
		 M20.315,37.145c-0.443,0.145-0.917,0.102-1.333-0.112c-0.418-0.214-0.726-0.576-0.867-1.018l-5.714-17.781
		c-0.295-0.919,0.212-1.907,1.131-2.202L49.488,4.48c0.174-0.057,0.353-0.084,0.53-0.084c0.275,0,0.55,0.066,0.803,0.196
		c0.418,0.215,0.727,0.576,0.868,1.019l5.713,17.781c0.296,0.918-0.212,1.906-1.131,2.201L43.75,29.616
		c-0.199,0.037-0.398,0.071-0.597,0.135l-5.478,1.76c-0.197,0.063-0.377,0.151-0.558,0.236L20.315,37.145z M39.198,36.251
		c-0.887,0.288-1.844-0.016-2.045-0.645c-0.167-0.52,0.221-1.155,0.862-1.521l6.362-2.044c0.076-0.008,0.152-0.018,0.226-0.018
		c0.645,0,1.21,0.286,1.359,0.753c0.202,0.628-0.399,1.429-1.287,1.714L39.198,36.251z M49.745,55.174
		c0-2.966,2.412-5.378,5.441-5.38l6.197-0.318v11.395l-6.261-0.32C52.157,60.552,49.745,58.14,49.745,55.174z M64.822,61.177
		c0,0.884-0.283,1.475-0.47,1.688c-0.187-0.214-0.469-0.805-0.469-1.688V49.17c0-0.884,0.282-1.475,0.469-1.688
		c0.187,0.214,0.47,0.805,0.47,1.688V61.177z"/>
</g>
<g>
</g>
<g>
</g>
<g>
</g>
<g>
</g>
<g>
</g>
<g>
</g>
<g>
</g>
<g>
</g>
<g>
</g>
<g>
</g>
<g>
</g>
<g>
</g>
<g>
</g>
<g>
</g>
<g>
</g>
</svg>
